<svg width="20" height="20" viewBox="0 0 20 20" fill="none" xmlns="http://www.w3.org/2000/svg">
<path d="M2.12122 16.3636H4.84849V19.0909C4.84849 19.593 5.25552 20 5.75758 20H17.8788C18.3809 20 18.7879 19.593 18.7879 19.0909V4.54545C18.7879 4.04339 18.3809 3.63636 17.8788 3.63636H15.1515V0.909091C15.1515 0.40703 14.7445 0 14.2424 0H2.12122C1.61916 0 1.21213 0.40703 1.21213 0.909091V15.4545C1.21213 15.9566 1.61916 16.3636 2.12122 16.3636ZM16.9697 18.1818H6.66667V5.45455H16.9697V18.1818ZM3.03031 1.81818H13.3333V3.63636H5.75758C5.25552 3.63636 4.84849 4.04339 4.84849 4.54545V14.5455H3.03031V1.81818Z" fill="#FFF5ED"/>
<path d="M9.39395 7.27271C8.89189 7.27271 8.48486 7.67974 8.48486 8.1818C8.48486 8.68386 8.89189 9.09089 9.39395 9.09089H14.2424C14.7445 9.09089 15.1515 8.68386 15.1515 8.1818C15.1515 7.67974 14.7445 7.27271 14.2424 7.27271H9.39395Z" fill="#FFF5ED"/>
<path d="M14.2424 10.9091H9.39395C8.89189 10.9091 8.48486 11.3161 8.48486 11.8182C8.48486 12.3203 8.89189 12.7273 9.39395 12.7273H14.2424C14.7445 12.7273 15.1515 12.3203 15.1515 11.8182C15.1515 11.3161 14.7445 10.9091 14.2424 10.9091Z" fill="#FFF5ED"/>
<path d="M14.2424 14.5455H9.39395C8.89189 14.5455 8.48486 14.9525 8.48486 15.4546C8.48486 15.9566 8.89189 16.3637 9.39395 16.3637H14.2424C14.7445 16.3637 15.1515 15.9566 15.1515 15.4546C15.1515 14.9525 14.7445 14.5455 14.2424 14.5455Z" fill="#FFF5ED"/>
</svg>
