<svg width="23" height="23" viewBox="0 0 23 23" fill="none" xmlns="http://www.w3.org/2000/svg">
<path d="M4.09549 13.807L4.09548 13.807C3.8642 14.0383 3.69485 14.3259 3.60504 14.6417L2.18352 19.6193L2.18346 19.6195C2.13621 19.7855 2.13417 19.9611 2.17755 20.1282C2.22093 20.2953 2.30816 20.4477 2.43021 20.5698C2.55227 20.6918 2.70471 20.7791 2.87178 20.8225C3.03885 20.8658 3.21448 20.8638 3.38049 20.8165L3.38069 20.8165L8.35954 19.3949L8.42175 19.3771L8.42451 19.3744C8.71265 19.2808 8.97652 19.121 9.19297 18.9045L9.0162 18.7277L9.19298 18.9045L19.7983 8.29827C21.1998 6.89677 21.1998 4.60323 19.7983 3.20172C19.0974 2.50053 18.1729 2.15051 17.25 2.15051C16.3271 2.15051 15.4026 2.50053 14.7017 3.20171C14.7017 3.20173 14.7017 3.20175 14.7017 3.20176L4.09549 13.807ZM18.4274 4.57159L18.4274 4.57163C19.0846 5.22879 19.0852 6.27153 18.4284 6.92837L17.6758 7.68091L15.3191 5.32418L16.0716 4.57163L16.0717 4.57159C16.4002 4.24295 16.8254 4.07959 17.25 4.07959C17.6745 4.07959 18.0988 4.24286 18.4274 4.57159ZM7.82432 17.5324L4.52486 18.4751L5.46759 15.1747L13.9492 6.69408L16.3059 9.05082L7.82432 17.5324Z" fill="#973C34" stroke="#973C34" stroke-width="0.5"/>
</svg>
