<svg width="21" height="21" viewBox="0 0 21 21" fill="none" xmlns="http://www.w3.org/2000/svg">
<path d="M14.4702 15.2629C15.048 15.2629 15.5164 14.5603 15.5164 13.6937C15.5164 12.827 15.048 12.1245 14.4702 12.1245C13.8924 12.1245 13.4241 12.827 13.4241 13.6937C13.4241 14.5603 13.8924 15.2629 14.4702 15.2629Z" fill="white"/>
<path d="M16.5453 10.0751C17.0591 10.0751 17.4757 9.44736 17.4757 8.67306C17.4757 7.89875 17.0591 7.27106 16.5453 7.27106C16.0315 7.27106 15.6149 7.89875 15.6149 8.67306C15.6149 9.44736 16.0315 10.0751 16.5453 10.0751Z" fill="white"/>
<path d="M20.2626 3.25367L10.7958 0.406793C10.7787 0.402506 10.7572 0.398218 10.7401 0.393931C10.7229 0.389643 10.7015 0.385356 10.6844 0.381068C10.56 0.359631 10.4357 0.359631 10.3114 0.381068C10.2942 0.385356 10.2728 0.389643 10.2556 0.393931C10.2385 0.398218 10.217 0.402506 10.1999 0.406793L8.08616 1.04134L6.37975 1.55583L1.59922 2.99213L0.737444 3.24938C0.300123 3.38229 0 3.78531 0 4.23979V16.7463C0 17.2051 0.300123 17.6038 0.737444 17.7367L10.1999 20.5922C10.2985 20.6222 10.3971 20.635 10.5 20.635C10.5986 20.635 10.7015 20.6222 10.8001 20.5922L20.2626 17.7453C20.6999 17.6124 21 17.2094 21 16.7549V4.24407C21 3.7896 20.6999 3.38658 20.2626 3.25367ZM3.0098 15.6316C2.50817 15.6316 2.09657 15.0185 2.09657 14.2639C2.09657 13.5093 2.50388 12.8962 3.0098 12.8962C3.51143 12.8962 3.92303 13.5093 3.92303 14.2639C3.92303 15.0185 3.51143 15.6316 3.0098 15.6316ZM5.16639 11.7343C4.61331 11.7343 4.16313 11.0569 4.16313 10.2251C4.16313 9.39332 4.61331 8.7159 5.16639 8.7159C5.71948 8.7159 6.16966 9.39332 6.16966 10.2251C6.16966 11.0569 5.72377 11.7343 5.16639 11.7343ZM7.6274 7.86698C7.04859 7.86698 6.58126 7.16384 6.58126 6.29777C6.58126 5.4317 7.04859 4.72856 7.6274 4.72856C8.20621 4.72856 8.67354 5.4317 8.67354 6.29777C8.67354 7.16384 8.20621 7.86698 7.6274 7.86698ZM18.9292 15.9832L11.5333 18.2083V2.79062L18.9292 5.01582V15.9832Z" fill="white"/>
</svg>
